<?xml version="1.0" encoding="utf-8"?>
<!-- Generator: Adobe Illustrator 19.2.1, SVG Export Plug-In . SVG Version: 6.00 Build 0)  -->
<svg version="1.1" xmlns="http://www.w3.org/2000/svg" xmlns:xlink="http://www.w3.org/1999/xlink" x="0px" y="0px"
	 viewBox="0 0 1280 800" style="enable-background:new 0 0 1280 800;" xml:space="preserve">
<style type="text/css">
	.st0{display:none;}
	.st1{display:inline;}
	.st2{fill:none;stroke:#FFFFFF;stroke-miterlimit:10;}
	.st3{fill:#FFFFFF;}
	.st4{fill:url(#SVGID_1_);stroke:url(#SVGID_2_);stroke-miterlimit:10;}
	.st5{fill:url(#SVGID_3_);stroke:url(#SVGID_4_);stroke-miterlimit:10;}
	.st6{fill:#E61A27;}
	.st7{fill:url(#SVGID_5_);}
	.st8{fill:url(#SVGID_6_);}
	.st9{fill:none;}
	.st10{font-family:'Arial-BoldItalicMT';}
	.st11{font-size:40px;}
	.st12{display:inline;fill:#4D4D4D;}
	.st13{display:inline;fill:none;}
	.st14{display:inline;fill:#FFFFFF;}
	.st15{font-family:'MyriadPro-BoldCond';}
	.st16{font-size:50px;}
</style>
<g id="fondo" class="st0">
	<rect class="st1" width="1280" height="800"/>
</g>
<g id="bara_latera" class="st0">
	<g class="st1">
		<circle class="st2" cx="78.2" cy="398" r="19.5"/>
		<circle class="st3" cx="78.2" cy="355.3" r="4.4"/>
		<circle class="st3" cx="78.2" cy="441.6" r="4.4"/>
		<circle class="st3" cx="78.2" cy="331.3" r="2.7"/>
		<circle class="st3" cx="78.2" cy="464.3" r="2.7"/>
		<circle class="st3" cx="78.2" cy="398.6" r="4.4"/>
		<linearGradient id="SVGID_1_" gradientUnits="userSpaceOnUse" x1="78.973" y1="229.25" x2="77.4786" y2="229.25">
			<stop  offset="0" style="stop-color:#FFFFFF"/>
			<stop  offset="1" style="stop-color:#000000;stop-opacity:0"/>
		</linearGradient>
		<linearGradient id="SVGID_2_" gradientUnits="userSpaceOnUse" x1="78.2258" y1="311" x2="78.2258" y2="147.5">
			<stop  offset="0" style="stop-color:#FFFFFF"/>
			<stop  offset="1" style="stop-color:#000000;stop-opacity:0"/>
		</linearGradient>
		<rect x="77.5" y="148" class="st4" width="1.5" height="162.5"/>
		
			<linearGradient id="SVGID_3_" gradientUnits="userSpaceOnUse" x1="78.973" y1="531.75" x2="77.4786" y2="531.75" gradientTransform="matrix(1 0 0 -1 0 1099.5)">
			<stop  offset="0" style="stop-color:#FFFFFF"/>
			<stop  offset="1" style="stop-color:#000000;stop-opacity:0"/>
		</linearGradient>
		
			<linearGradient id="SVGID_4_" gradientUnits="userSpaceOnUse" x1="78.2258" y1="613.5" x2="78.2258" y2="450" gradientTransform="matrix(1 0 0 -1 0 1099.5)">
			<stop  offset="0" style="stop-color:#FFFFFF"/>
			<stop  offset="0.9704" style="stop-color:#262625;stop-opacity:0"/>
			<stop  offset="1" style="stop-color:#000000;stop-opacity:0"/>
		</linearGradient>
		<rect x="77.5" y="486.5" class="st5" width="1.5" height="162.5"/>
	</g>
</g>
<g id="coca-tex">
	<rect x="750.6" y="461.6" class="st6" width="144.6" height="55.9"/>
	<linearGradient id="SVGID_5_" gradientUnits="userSpaceOnUse" x1="257.3513" y1="488.0414" x2="750.5946" y2="488.0414">
		<stop  offset="0" style="stop-color:#000000"/>
		<stop  offset="1" style="stop-color:#C1272D"/>
	</linearGradient>
	<rect x="257.4" y="486.5" class="st7" width="493.2" height="3.1"/>
	
		<linearGradient id="SVGID_6_" gradientUnits="userSpaceOnUse" x1="-291.2973" y1="489.5828" x2="-61.8919" y2="489.5828" gradientTransform="matrix(-1 0 0 1 978.2162 0)">
		<stop  offset="0" style="stop-color:#000000"/>
		<stop  offset="1" style="stop-color:#C1272D"/>
	</linearGradient>
	<path class="st8" d="M1268,488h-226.3c-0.9,0-1.5,0.7-1.5,1.5l0,0c0,0.9,0.7,1.5,1.5,1.5H1268c0.9,0,1.5-0.7,1.5-1.5l0,0
		C1269.5,488.7,1268.8,488,1268,488z"/>
	<rect x="764.1" y="471.2" class="st9" width="135.1" height="43.7"/>
	<text transform="matrix(1 0 0 1 764.0537 499.8672)" class="st3 st10 st11">COCA</text>
	<rect x="914.6" y="471.2" class="st9" width="135.1" height="43.7"/>
	<text transform="matrix(1 0 0 1 914.6483 499.8672)" class="st3 st10 st11">COLA</text>
</g>
<g id="boton1" class="st0">
	<rect x="1091.8" y="675" class="st12" width="57.4" height="57.4"/>
	<rect x="1103.3" y="676.9" class="st13" width="41.2" height="57.6"/>
	<text transform="matrix(1 0 0 1 1103.2571 718.7463)" class="st14 st15 st16">&lt; </text>
</g>
<g id="boton2" class="st0">
	<rect x="1163.4" y="675" class="st12" width="57.4" height="57.4"/>
	<rect x="1179.6" y="675.9" class="st13" width="41.2" height="57.6"/>
	<text transform="matrix(1 0 0 1 1179.6315 717.7463)" class="st14 st15 st16">&gt; </text>
</g>
<g id="guia" class="st0">
	
		<image style="display:inline;overflow:visible;opacity:0.2;" width="461" height="262" xlink:href="9B7CB3F7.jpg"  transform="matrix(2.7766 0 0 3.0534 0 0)">
	</image>
</g>
</svg>
